# xmcd CD database file
#
# Track frame offsets:
#	150
#	15899
#	39684
#	57691
#	69325
#	79752
#
# Disc length: 1175 seconds
#
# Revision: 0
# Processed by: cddbd v1.5PL3 Copyright (c) Steve Scherf et al.
# Submitted via: CDex 1.50
#
DISCID=45049506
DTITLE=baptiste l.b. - demo
DYEAR=1900
DGENRE=Jazz
TTITLE0=les bons moments
TTITLE1=meme dieu tombe
TTITLE2=la route des gouttes
TTITLE3=show-bizz, l'abeille coule
TTITLE4=ce petit innocent
TTITLE5=awalé
EXTD=
EXTT0=
EXTT1=
EXTT2=
EXTT3=
EXTT4=
EXTT5=
PLAYORDER=
